<svg xmlns="http://www.w3.org/2000/svg" xmlns:xlink="http://www.w3.org/1999/xlink" width="147.155" height="44.773" viewBox="0 0 147.155 44.773">
  <defs>
    <clipPath id="clip-path">
      <rect id="Rect치ngulo_408" data-name="Rect치ngulo 408" width="147.155" height="44.773" fill="none"/>
    </clipPath>
    <clipPath id="clip-path-2">
      <rect id="Rect치ngulo_409" data-name="Rect치ngulo 409" width="44.773" height="44.773" fill="none"/>
    </clipPath>
  </defs>
  <g id="Grupo_1303" data-name="Grupo 1303" transform="translate(0 0)">
    <g id="Grupo_1300" data-name="Grupo 1300" transform="translate(0 0)">
      <g id="Grupo_1299" data-name="Grupo 1299" clip-path="url(#clip-path)">
        <path id="Trazado_2071" data-name="Trazado 2071" d="M142.592,48.583a3.23,3.23,0,0,1-3.534-2.93c3.5-.214,9.36-1.25,9.36-6.432,0-3.75-2.5-5.571-6.252-5.571-6.1,0-9.183,5-9.183,10.183,0,5.834,3.188,8.761,8.754,8.761a13.8,13.8,0,0,0,6.86-1.582l-1.572-3.93a8.309,8.309,0,0,1-4.431,1.5m-.749-10.741a1.335,1.335,0,0,1,1.4,1.465c0,1.75-2.536,2.644-4.468,2.751.107-2.465,1.287-4.216,3.071-4.216" transform="translate(-67.172 -16.997)" fill="#f3ffff"/>
        <path id="Trazado_2072" data-name="Trazado 2072" d="M175.588,36.39l-.012.032.017-2.534h-4.865V52.177h5.966V41.685c0-4.675,5.3-2.563,5.653-1.606l.015-5.126c-.642-.845-4.458-2.546-6.774,1.438" transform="translate(-86.239 -17.103)" fill="#f3ffff"/>
        <path id="Trazado_2073" data-name="Trazado 2073" d="M207.371,33.261v.032a26.736,26.736,0,0,0-7.958,1.357V59.69h6V51.934a7.323,7.323,0,0,0,2.639.488c4.928,0,8-3.227,8-9.586s-2.93-9.574-8.679-9.574m-.283,14.693v0a2.292,2.292,0,0,1-1.677-.466V37.965a5.287,5.287,0,0,1,1.428-.215c2.854,0,3.21,3,3.21,5.371,0,2.248-.572,4.833-2.961,4.833" transform="translate(-100.728 -16.801)" fill="#f3ffff"/>
        <path id="Trazado_2074" data-name="Trazado 2074" d="M284.137,42.338l-.124.059a5.69,5.69,0,0,1-2.081.509c-1.145,0-1.536-.75-1.536-2.359V23.637h-5.979V41c0,3.418.317,6.574,5.859,6.574a9.32,9.32,0,0,0,5.493-1.665Z" transform="translate(-138.615 -11.94)" fill="#f3ffff"/>
        <path id="Trazado_2075" data-name="Trazado 2075" d="M247.262,48.608h0a3.228,3.228,0,0,1-3.537-2.93c3.5-.215,9.36-1.25,9.36-6.432,0-3.75-2.5-5.571-6.252-5.571-6.1,0-9.179,5-9.179,10.183,0,5.834,3.174,8.761,8.749,8.761a13.8,13.8,0,0,0,6.862-1.582l-1.744-3.818a8.186,8.186,0,0,1-4.259,1.389m-.752-10.741a1.332,1.332,0,0,1,1.394,1.465c0,1.75-2.537,2.644-4.465,2.751.107-2.465,1.287-4.216,3.071-4.216" transform="translate(-120.044 -17.01)" fill="#f3ffff"/>
        <path id="Trazado_2076" data-name="Trazado 2076" d="M117.265,33.38l2.685-4.68H114.3V23.637h-6.035V40.461c0,3.572.244,7.111,6.323,7.111a7.933,7.933,0,0,0,4.6-1.2h0l-1.576-3.45h0a5.966,5.966,0,0,1-1.166.139c-1.221,0-2.144-.488-2.144-2.465V33.38Z" transform="translate(-54.688 -11.94)" fill="#f3ffff"/>
      </g>
    </g>
    <g id="Grupo_1302" data-name="Grupo 1302" transform="translate(0 0)">
      <g id="Grupo_1301" data-name="Grupo 1301" clip-path="url(#clip-path-2)">
        <path id="Trazado_2077" data-name="Trazado 2077" d="M44.773,22.387A22.387,22.387,0,1,1,22.387,0,22.387,22.387,0,0,1,44.773,22.387" transform="translate(0 0)" fill="#f3ffff"/>
        <path id="Trazado_2078" data-name="Trazado 2078" d="M30.986,38.925a13.836,13.836,0,0,1-11.312-5.871,13.841,13.841,0,0,1,9.3-21.663A13.839,13.839,0,0,1,44.827,25.084,19.773,19.773,0,1,0,25.054,44.857,19.772,19.772,0,0,0,44.827,25.084,13.841,13.841,0,0,1,30.986,38.925" transform="translate(-2.668 -2.683)" fill="red"/>
        <path id="Trazado_2079" data-name="Trazado 2079" d="M55.168,17.3a13.931,13.931,0,0,0-2.014.147,13.84,13.84,0,0,1,0,27.386A13.841,13.841,0,1,0,55.168,17.3" transform="translate(-26.849 -8.738)" fill="#ffc000"/>
        <path id="Trazado_2080" data-name="Trazado 2080" d="M43.663,17.6a13.836,13.836,0,0,0-9.3,5.723,8.9,8.9,0,1,1,0,15.94,13.834,13.834,0,0,0,9.3,5.723,13.84,13.84,0,0,0,0-27.386" transform="translate(-17.358 -8.888)" fill="#ffea00"/>
      </g>
    </g>
  </g>
</svg>
