<svg xmlns="http://www.w3.org/2000/svg" width="11.255" height="11.255" viewBox="0 0 11.255 11.255">
  <path id="Trazado_2208" data-name="Trazado 2208" d="M12.045-10.455a1.127,1.127,0,0,0,0-1.593,1.127,1.127,0,0,0-1.593,0L6.75-8.343l-3.705-3.7a1.127,1.127,0,0,0-1.593,0,1.127,1.127,0,0,0,0,1.593l3.705,3.7-3.7,3.705a1.127,1.127,0,0,0,0,1.593,1.127,1.127,0,0,0,1.593,0l3.7-3.705,3.705,3.7a1.127,1.127,0,0,0,1.593,0,1.127,1.127,0,0,0,0-1.593L8.343-6.75l3.7-3.705Z" transform="translate(-1.122 12.378)" fill="#e1251b"/>
</svg>
