<svg xmlns="http://www.w3.org/2000/svg" width="100.415" height="59.219" viewBox="0 0 100.415 59.219">
  <g id="Grupo_1156" data-name="Grupo 1156" transform="translate(1 1.158)">
    <path id="Trazado_190" data-name="Trazado 190" d="M419.048,1144.712a32.9,32.9,0,0,1,18.4-29.543,17.527,17.527,0,0,1-3.095-9.961c0-13.314,14.758-23.164,28.744-13.967a17.832,17.832,0,0,1,4.6,5.225c3.21,7.191,2.4,13.093-1.46,18.7a32.9,32.9,0,0,1,18.392,29.543H433.573" transform="translate(-386.204 -1087.651)" fill="none" stroke="#fff" stroke-linejoin="round" stroke-width="2"/>
    <path id="Trazado_191" data-name="Trazado 191" d="M419.048,1130.628a24.737,24.737,0,0,1,14.163-22.251,13.005,13.005,0,0,1-2.383-7.5c0-10.028,11.363-17.446,22.131-10.52a7.008,7.008,0,0,1,2,1.957c3.936,5.852,3.386,11.84.418,16.065,2.463,1.185,5.7,2.752,7.846,4.829.222.425-7.473,5.148-10.26,17.422H430.231" transform="translate(-419.048 -1080.72)" fill="none" stroke="#fff" stroke-linejoin="round" stroke-width="2"/>
  </g>
</svg>
