<svg xmlns="http://www.w3.org/2000/svg" width="62.747" height="55.222" viewBox="0 0 62.747 55.222">
  <path id="Trazado_192" data-name="Trazado 192" d="M7.556,53.371V22.751s15.774,5.1,17.862-1.392c0,0,.233-2.784-3.015-6.728,0,0-4.177-8.351,8.119-8.582,0,0,10.67,3.015,2.784,11.83,0,0-3.481,6.728,5.567,6.5L50.7,24.141s-3.944,10.905,1.856,13.92c0,0,.7,1.623,7.888-3.481,0,0,9.278-1.159,7.655,8.817s-11.368,3.944-11.368,3.944-9.278-7.888-7.192,6.959l.929,4.175-11.136.7s-11.6,1.392-4.64-8.584c0,0,5.569-10.67-9.045-8.582,0,0-7.888,2.782-1.625,10.9,0,0,4.407,5.1-3.015,6.263H13.819" transform="translate(-6.556 -5.045)" fill="none" stroke="#e1251b" stroke-miterlimit="10" stroke-width="2"/>
</svg>
