<svg xmlns="http://www.w3.org/2000/svg" width="71" height="71" viewBox="0 0 71 71">
  <g id="Grupo_1420" data-name="Grupo 1420" transform="translate(-212 -2650)">
    <g id="Elipse_95" data-name="Elipse 95" transform="translate(212 2650)" fill="#fff" stroke="#e1251b" stroke-width="1">
      <circle cx="35.5" cy="35.5" r="35.5" stroke="none"/>
      <circle cx="35.5" cy="35.5" r="35" fill="none"/>
    </g>
    <path id="Trazado_2202" data-name="Trazado 2202" d="M13.75-20A13.75,13.75,0,0,0,0-33.75,13.75,13.75,0,0,0-13.75-20a14.933,14.933,0,0,0,1.391,5.438A49.24,49.24,0,0,0-8.867-7.977,118.008,118.008,0,0,0-.875,3.211a1.109,1.109,0,0,0,1.75,0A118.007,118.007,0,0,0,8.867-7.977a49.24,49.24,0,0,0,3.492-6.586A14.933,14.933,0,0,0,13.75-20ZM15-20C15-13.172,5.859-1.016,1.852,4a2.36,2.36,0,0,1-3.7,0C-5.859-1.016-15-13.172-15-20A15,15,0,0,1,0-35,15,15,0,0,1,15-20ZM0-26.25a6.25,6.25,0,0,1,5.413,3.125,6.25,6.25,0,0,1,0,6.25A6.25,6.25,0,0,1,0-13.75a6.25,6.25,0,0,1-5.413-3.125,6.25,6.25,0,0,1,0-6.25A6.25,6.25,0,0,1,0-26.25ZM5-20a5,5,0,0,0-2.5-4.33,5,5,0,0,0-5,0A5,5,0,0,0-5-20a5,5,0,0,0,2.5,4.33,5,5,0,0,0,5,0A5,5,0,0,0,5-20Z" transform="translate(248 2701)" fill="#e1251b"/>
  </g>
</svg>
