<svg xmlns="http://www.w3.org/2000/svg" width="21" height="24" viewBox="0 0 21 24">
  <path id="Trazado_2203" data-name="Trazado 2203" d="M4.5-15a4.5,4.5,0,0,0-2.25-3.9,4.5,4.5,0,0,0-4.5,0A4.5,4.5,0,0,0-4.5-15a4.5,4.5,0,0,0,2.25,3.9,4.5,4.5,0,0,0,4.5,0A4.5,4.5,0,0,0,4.5-15ZM-6-15a6,6,0,0,1,3-5.2,6,6,0,0,1,6,0A6,6,0,0,1,6-15,6,6,0,0,1,3-9.8a6,6,0,0,1-6,0A6,6,0,0,1-6-15ZM-9,1.5H9A6.857,6.857,0,0,0,2.142-5.25H-2.142A6.863,6.863,0,0,0-9,1.5Zm-1.5.108A8.356,8.356,0,0,1-2.142-6.75H2.142A8.356,8.356,0,0,1,10.5,1.608,1.392,1.392,0,0,1,9.108,3H-9.108A1.392,1.392,0,0,1-10.5,1.608Z" transform="translate(10.5 21)" fill="#e1251b"/>
</svg>
